dataset
version=1
nRows=34
nColumns=39
inDegrees=no
endheader
time	sternoclavicular_r2	sternoclavicular_r3	unrotscap_r3	unrotscap_r2	acromioclavicular_r2	acromioclavicular_r3	acromioclavicular_r1	unrothum_r1	unrothum_r3	unrothum_r2	elv_angle	shoulder_elv	shoulder1_r2	shoulder_rot	elbow_flexion	pro_sup	deviation	flexion	cmc_abduction	cmc_flexion	mp_flexion	ip_flexion	mcp2_flexion	mcp2_abduction	pm2_flexion	md2_flexion	mcp3_flexion	mcp3_abduction	pm3_flexion	md3_flexion	mcp4_flexion	mcp4_abduction	pm4_flexion	md4_flexion	mcp5_flexion	mcp5_abduction	pm5_flexion	md5_flexion
0.000000	0.012661	-0.371837	0.206229	0.103604	0.020891	0.417023	0.020784	0.124330	0.339562	0.042440	0.151607	0.027437	0.146525	0.146525	1.144608	0.978857	0.000000	0.000000	0.000000	0.000000	0.000000	0.000000	0.000000	0.000000	0.000000	0.000000	0.000000	0.000000	0.000000	0.000000	0.000000	0.000000	0.000000	0.000000	0.000000	0.000000	0.000000	0.000000
0.005000	0.012660	-0.371845	0.206355	0.103580	0.020850	0.417113	0.020689	0.124369	0.339566	0.042410	0.151585	0.027437	0.146525	0.146525	1.145195	0.987132	0.000000	0.000000	0.000000	0.000000	0.000000	0.000000	0.000000	0.000000	0.000000	0.000000	0.000000	0.000000	0.000000	0.000000	0.000000	0.000000	0.000000	0.000000	0.000000	0.000000	0.000000	0.000000
0.010000	0.012657	-0.371846	0.206457	0.103552	0.020806	0.417191	0.020613	0.124371	0.339592	0.042390	0.151574	0.027437	0.146525	0.146525	1.145787	0.995187	0.000000	0.000000	0.000000	0.000000	0.000000	0.000000	0.000000	0.000000	0.000000	0.000000	0.000000	0.000000	0.000000	0.000000	0.000000	0.000000	0.000000	0.000000	0.000000	0.000000	0.000000	0.000000
0.015000	0.012654	-0.371843	0.206548	0.103522	0.020762	0.417263	0.020546	0.124351	0.339631	0.042378	0.151571	0.027437	0.146525	0.146525	1.146384	1.003029	0.000000	0.000000	0.000000	0.000000	0.000000	0.000000	0.000000	0.000000	0.000000	0.000000	0.000000	0.000000	0.000000	0.000000	0.000000	0.000000	0.000000	0.000000	0.000000	0.000000	0.000000	0.000000
0.020000	0.012649	-0.371837	0.206632	0.103491	0.020717	0.417331	0.020483	0.124318	0.339676	0.042372	0.151574	0.027437	0.146525	0.146525	1.146986	1.010663	0.000000	0.000000	0.000000	0.000000	0.000000	0.000000	0.000000	0.000000	0.000000	0.000000	0.000000	0.000000	0.000000	0.000000	0.000000	0.000000	0.000000	0.000000	0.000000	0.000000	0.000000	0.000000
0.025000	0.012642	-0.371829	0.206713	0.103460	0.020673	0.417396	0.020422	0.124275	0.339727	0.042371	0.151580	0.027437	0.146525	0.146525	1.147593	1.018094	0.000000	0.000000	0.000000	0.000000	0.000000	0.000000	0.000000	0.000000	0.000000	0.000000	0.000000	0.000000	0.000000	0.000000	0.000000	0.000000	0.000000	0.000000	0.000000	0.000000	0.000000	0.000000
0.030000	0.012635	-0.371819	0.206794	0.103429	0.020629	0.417459	0.020361	0.124225	0.339779	0.042373	0.151590	0.027437	0.146525	0.146525	1.148207	1.025328	0.000000	0.000000	0.000000	0.000000	0.000000	0.000000	0.000000	0.000000	0.000000	0.000000	0.000000	0.000000	0.000000	0.000000	0.000000	0.000000	0.000000	0.000000	0.000000	0.000000	0.000000	0.000000
0.035000	0.012625	-0.371808	0.206874	0.103398	0.020586	0.417520	0.020298	0.124170	0.339833	0.042379	0.151603	0.027437	0.146525	0.146525	1.148829	1.032369	0.000000	0.000000	0.000000	0.000000	0.000000	0.000000	0.000000	0.000000	0.000000	0.000000	0.000000	0.000000	0.000000	0.000000	0.000000	0.000000	0.000000	0.000000	0.000000	0.000000	0.000000	0.000000
0.040000	0.012615	-0.371795	0.206955	0.103366	0.020542	0.417580	0.020234	0.124110	0.339888	0.042388	0.151618	0.027437	0.146525	0.146525	1.149458	1.039222	0.000000	0.000000	0.000000	0.000000	0.000000	0.000000	0.000000	0.000000	0.000000	0.000000	0.000000	0.000000	0.000000	0.000000	0.000000	0.000000	0.000000	0.000000	0.000000	0.000000	0.000000	0.000000
0.045000	0.012603	-0.371782	0.207037	0.103335	0.020499	0.417639	0.020168	0.124046	0.339943	0.042400	0.151635	0.027437	0.146525	0.146525	1.150097	1.045892	0.000000	0.000000	0.000000	0.000000	0.000000	0.000000	0.000000	0.000000	0.000000	0.000000	0.000000	0.000000	0.000000	0.000000	0.000000	0.000000	0.000000	0.000000	0.000000	0.000000	0.000000	0.000000
0.050000	0.012589	-0.371768	0.207120	0.103304	0.020456	0.417695	0.020099	0.123978	0.339997	0.042413	0.151654	0.027437	0.146525	0.146525	1.150746	1.052384	0.000000	0.000000	0.000000	0.000000	0.000000	0.000000	0.000000	0.000000	0.000000	0.000000	0.000000	0.000000	0.000000	0.000000	0.000000	0.000000	0.000000	0.000000	0.000000	0.000000	0.000000	0.000000
0.055000	0.012574	-0.371752	0.207204	0.103272	0.020413	0.417750	0.020028	0.123907	0.340051	0.042430	0.151674	0.027437	0.146525	0.146525	1.151406	1.058703	0.000000	0.000000	0.000000	0.000000	0.000000	0.000000	0.000000	0.000000	0.000000	0.000000	0.000000	0.000000	0.000000	0.000000	0.000000	0.000000	0.000000	0.000000	0.000000	0.000000	0.000000	0.000000
0.060000	0.012558	-0.371736	0.207289	0.103239	0.020370	0.417804	0.019955	0.123833	0.340104	0.042448	0.151696	0.027437	0.146525	0.146525	1.152078	1.064852	0.000000	0.000000	0.000000	0.000000	0.000000	0.000000	0.000000	0.000000	0.000000	0.000000	0.000000	0.000000	0.000000	0.000000	0.000000	0.000000	0.000000	0.000000	0.000000	0.000000	0.000000	0.000000
0.065000	0.012541	-0.371719	0.207376	0.103206	0.020327	0.417856	0.019879	0.123755	0.340156	0.042468	0.151718	0.027437	0.146525	0.146525	1.152763	1.070837	0.000000	0.000000	0.000000	0.000000	0.000000	0.000000	0.000000	0.000000	0.000000	0.000000	0.000000	0.000000	0.000000	0.000000	0.000000	0.000000	0.000000	0.000000	0.000000	0.000000	0.000000	0.000000
0.070000	0.012523	-0.371701	0.207464	0.103172	0.020282	0.417906	0.019800	0.123674	0.340207	0.042489	0.151741	0.027437	0.146525	0.146525	1.153462	1.076662	0.000000	0.000000	0.000000	0.000000	0.000000	0.000000	0.000000	0.000000	0.000000	0.000000	0.000000	0.000000	0.000000	0.000000	0.000000	0.000000	0.000000	0.000000	0.000000	0.000000	0.000000	0.000000
0.075000	0.012503	-0.371683	0.207553	0.103137	0.020238	0.417954	0.019718	0.123591	0.340256	0.042512	0.151764	0.027437	0.146525	0.146525	1.154176	1.082331	0.000000	0.000000	0.000000	0.000000	0.000000	0.000000	0.000000	0.000000	0.000000	0.000000	0.000000	0.000000	0.000000	0.000000	0.000000	0.000000	0.000000	0.000000	0.000000	0.000000	0.000000	0.000000
0.080000	0.012482	-0.371664	0.207643	0.103100	0.020192	0.418001	0.019633	0.123504	0.340303	0.042535	0.151786	0.027437	0.146525	0.146525	1.154906	1.087848	0.000000	0.000000	0.000000	0.000000	0.000000	0.000000	0.000000	0.000000	0.000000	0.000000	0.000000	0.000000	0.000000	0.000000	0.000000	0.000000	0.000000	0.000000	0.000000	0.000000	0.000000	0.000000
0.085000	0.012461	-0.371644	0.207735	0.103062	0.020145	0.418045	0.019545	0.123416	0.340348	0.042560	0.151809	0.027437	0.146525	0.146525	1.155652	1.093217	0.000000	0.000000	0.000000	0.000000	0.000000	0.000000	0.000000	0.000000	0.000000	0.000000	0.000000	0.000000	0.000000	0.000000	0.000000	0.000000	0.000000	0.000000	0.000000	0.000000	0.000000	0.000000
0.090000	0.012439	-0.371624	0.207828	0.103023	0.020098	0.418088	0.019455	0.123324	0.340390	0.042584	0.151830	0.027437	0.146525	0.146525	1.156416	1.098442	0.000000	0.000000	0.000000	0.000000	0.000000	0.000000	0.000000	0.000000	0.000000	0.000000	0.000000	0.000000	0.000000	0.000000	0.000000	0.000000	0.000000	0.000000	0.000000	0.000000	0.000000	0.000000
0.095000	0.012415	-0.371604	0.207922	0.102982	0.020048	0.418129	0.019361	0.123231	0.340430	0.042609	0.151851	0.027437	0.146525	0.146525	1.157199	1.103527	0.000000	0.000000	0.000000	0.000000	0.000000	0.000000	0.000000	0.000000	0.000000	0.000000	0.000000	0.000000	0.000000	0.000000	0.000000	0.000000	0.000000	0.000000	0.000000	0.000000	0.000000	0.000000
0.100000	0.012392	-0.371583	0.208018	0.102938	0.019997	0.418168	0.019263	0.123136	0.340467	0.042634	0.151870	0.027437	0.146525	0.146525	1.158001	1.108475	0.000000	0.000000	0.000000	0.000000	0.000000	0.000000	0.000000	0.000000	0.000000	0.000000	0.000000	0.000000	0.000000	0.000000	0.000000	0.000000	0.000000	0.000000	0.000000	0.000000	0.000000	0.000000
0.105000	0.012368	-0.371562	0.208115	0.102893	0.019945	0.418205	0.019162	0.123039	0.340501	0.042658	0.151888	0.027437	0.146525	0.146525	1.158823	1.113291	0.000000	0.000000	0.000000	0.000000	0.000000	0.000000	0.000000	0.000000	0.000000	0.000000	0.000000	0.000000	0.000000	0.000000	0.000000	0.000000	0.000000	0.000000	0.000000	0.000000	0.000000	0.000000
0.110000	0.012343	-0.371541	0.208213	0.102845	0.019890	0.418241	0.019058	0.122940	0.340532	0.042681	0.151903	0.027437	0.146525	0.146525	1.159666	1.117978	0.000000	0.000000	0.000000	0.000000	0.000000	0.000000	0.000000	0.000000	0.000000	0.000000	0.000000	0.000000	0.000000	0.000000	0.000000	0.000000	0.000000	0.000000	0.000000	0.000000	0.000000	0.000000
0.115000	0.012318	-0.371520	0.208313	0.102795	0.019833	0.418275	0.018951	0.122841	0.340559	0.042704	0.151916	0.027437	0.146525	0.146525	1.160531	1.122539	0.000000	0.000000	0.000000	0.000000	0.000000	0.000000	0.000000	0.000000	0.000000	0.000000	0.000000	0.000000	0.000000	0.000000	0.000000	0.000000	0.000000	0.000000	0.000000	0.000000	0.000000	0.000000
0.120000	0.012293	-0.371499	0.208415	0.102742	0.019774	0.418307	0.018840	0.122740	0.340583	0.042724	0.151926	0.027437	0.146525	0.146525	1.161418	1.126977	0.000000	0.000000	0.000000	0.000000	0.000000	0.000000	0.000000	0.000000	0.000000	0.000000	0.000000	0.000000	0.000000	0.000000	0.000000	0.000000	0.000000	0.000000	0.000000	0.000000	0.000000	0.000000
0.125000	0.012268	-0.371479	0.208517	0.102686	0.019712	0.418337	0.018725	0.122638	0.340603	0.042743	0.151933	0.027437	0.146525	0.146525	1.162328	1.131296	0.000000	0.000000	0.000000	0.000000	0.000000	0.000000	0.000000	0.000000	0.000000	0.000000	0.000000	0.000000	0.000000	0.000000	0.000000	0.000000	0.000000	0.000000	0.000000	0.000000	0.000000	0.000000
0.130000	0.012244	-0.371459	0.208622	0.102627	0.019647	0.418366	0.018607	0.122536	0.340618	0.042760	0.151936	0.027437	0.146525	0.146525	1.163262	1.135500	0.000000	0.000000	0.000000	0.000000	0.000000	0.000000	0.000000	0.000000	0.000000	0.000000	0.000000	0.000000	0.000000	0.000000	0.000000	0.000000	0.000000	0.000000	0.000000	0.000000	0.000000	0.000000
0.135000	0.012219	-0.371439	0.208728	0.102565	0.019579	0.418394	0.018484	0.122434	0.340629	0.042774	0.151935	0.027437	0.146525	0.146525	1.164221	1.139590	0.000000	0.000000	0.000000	0.000000	0.000000	0.000000	0.000000	0.000000	0.000000	0.000000	0.000000	0.000000	0.000000	0.000000	0.000000	0.000000	0.000000	0.000000	0.000000	0.000000	0.000000	0.000000
0.140000	0.012196	-0.371421	0.208836	0.102499	0.019508	0.418421	0.018359	0.122332	0.340636	0.042784	0.151930	0.027437	0.146525	0.146525	1.165204	1.143571	0.000000	0.000000	0.000000	0.000000	0.000000	0.000000	0.000000	0.000000	0.000000	0.000000	0.000000	0.000000	0.000000	0.000000	0.000000	0.000000	0.000000	0.000000	0.000000	0.000000	0.000000	0.000000
0.145000	0.012173	-0.371403	0.208946	0.102429	0.019433	0.418446	0.018229	0.122231	0.340638	0.042792	0.151920	0.027437	0.146525	0.146525	1.166213	1.147444	0.000000	0.000000	0.000000	0.000000	0.000000	0.000000	0.000000	0.000000	0.000000	0.000000	0.000000	0.000000	0.000000	0.000000	0.000000	0.000000	0.000000	0.000000	0.000000	0.000000	0.000000	0.000000
0.150000	0.012151	-0.371386	0.209057	0.102355	0.019354	0.418470	0.018095	0.122131	0.340635	0.042795	0.151904	0.027437	0.146525	0.146525	1.167247	1.151213	0.000000	0.000000	0.000000	0.000000	0.000000	0.000000	0.000000	0.000000	0.000000	0.000000	0.000000	0.000000	0.000000	0.000000	0.000000	0.000000	0.000000	0.000000	0.000000	0.000000	0.000000	0.000000
0.155000	0.012130	-0.371371	0.209170	0.102277	0.019271	0.418494	0.017958	0.122031	0.340627	0.042793	0.151883	0.027437	0.146525	0.146525	1.168308	1.154881	0.000000	0.000000	0.000000	0.000000	0.000000	0.000000	0.000000	0.000000	0.000000	0.000000	0.000000	0.000000	0.000000	0.000000	0.000000	0.000000	0.000000	0.000000	0.000000	0.000000	0.000000	0.000000
0.160000	0.012111	-0.371357	0.209286	0.102194	0.019183	0.418517	0.017817	0.121934	0.340614	0.042787	0.151855	0.027437	0.146525	0.146525	1.169396	1.158451	0.000000	0.000000	0.000000	0.000000	0.000000	0.000000	0.000000	0.000000	0.000000	0.000000	0.000000	0.000000	0.000000	0.000000	0.000000	0.000000	0.000000	0.000000	0.000000	0.000000	0.000000	0.000000
0.165000	0.012093	-0.371345	0.209403	0.102107	0.019091	0.418540	0.017672	0.121839	0.340595	0.042776	0.151821	0.027437	0.146525	0.146525	1.170510	1.161924	0.000000	0.000000	0.000000	0.000000	0.000000	0.000000	0.000000	0.000000	0.000000	0.000000	0.000000	0.000000	0.000000	0.000000	0.000000	0.000000	0.000000	0.000000	0.000000	0.000000	0.000000	0.000000
